# Blender v3.0.1 OBJ File: ''
# www.blender.org
mtllib untitled.mtl
o field
v 10.780500 0.152020 1.901500
v 10.780500 0.026020 1.901500
v 10.780500 0.152020 0.151500
v 10.780500 0.026020 0.151500
v 10.756500 0.152020 1.901500
v 10.756500 0.152020 0.151500
v 10.756500 0.002020 1.901500
v 10.756500 0.002020 0.151500
v 10.906501 0.002020 1.901500
v 10.906501 0.002020 0.151500
v 10.906501 0.026020 1.901500
v 10.906501 0.026020 0.151500
v 10.756500 0.000020 0.151500
v 5.756500 0.000020 0.151500
v 5.756500 0.002020 0.151500
v 10.756500 0.000020 5.401500
v 10.756500 0.002020 5.401500
v 5.756500 0.000020 5.401500
v 5.756500 0.002020 5.401500
v 3.956501 0.004020 5.626500
v 3.956501 0.148020 5.626500
v 0.256500 0.004020 5.626500
v 0.256500 0.148020 5.626500
v 3.956501 0.004020 5.176500
v 0.256500 0.004020 5.176500
v 3.956501 0.148020 5.176500
v 0.256500 0.148020 5.176500
v 0.256500 0.004020 0.151500
v 2.256500 0.004020 0.151500
v 0.256500 0.002020 0.151500
v 2.256500 0.002020 0.151500
v 0.256500 0.004020 2.651500
v 0.256500 0.002020 2.651500
v 2.256500 0.004020 2.651500
v 2.256500 0.002020 2.651500
v 5.756500 0.002020 5.401500
v 0.256500 0.002020 5.401500
v 5.756500 0.000020 5.401500
v 0.256500 0.000020 5.401500
v 5.756500 0.002020 0.151500
v 5.756500 0.000020 0.151500
v 0.256500 0.002020 0.151500
v 0.256500 0.000020 0.151500
v 10.756500 0.004020 0.151500
v 10.756500 0.004020 1.151500
v 10.756500 0.002020 1.151500
v 9.756500 0.004020 0.151500
v 9.756500 0.002020 0.151500
v 9.756500 0.004020 1.151500
v 9.756500 0.002020 1.151500
v 6.756501 0.004020 1.151500
v 7.756501 0.004020 1.151500
v 6.756501 0.002020 1.151500
v 7.756501 0.002020 1.151500
v 6.756501 0.004020 5.379000
v 6.756501 0.002020 5.379000
v 7.756501 0.004020 5.379000
v 7.756501 0.002020 5.379000
v 7.756500 0.004020 0.151500
v 7.756500 0.004020 1.151500
v 7.756500 0.002020 0.151500
v 7.756500 0.002020 1.151500
v 6.756500 0.004020 0.151500
v 6.756500 0.002020 0.151500
v 6.756500 0.004020 1.151500
v 6.756500 0.002020 1.151500
v 3.956500 0.002020 5.379000
v 3.956500 0.047020 5.379000
v 10.756500 0.002020 5.379000
v 10.756500 0.047020 5.379000
v 3.956500 0.002020 5.424000
v 10.756500 0.002020 5.424000
v 3.956500 0.047020 5.424000
v 10.756500 0.047020 5.424000
v 0.256500 0.002020 6.001500
v 3.956501 0.002020 6.001500
v 0.256500 0.004020 6.001500
v 3.956501 0.004020 6.001500
v 0.256500 0.002020 4.801500
v 0.256500 0.004020 4.801500
v 3.956501 0.002020 4.801500
v 3.956501 0.004020 4.801500
v 0.232500 0.152020 1.901500
v 0.232500 0.026020 1.901500
v 0.232500 0.152020 3.651500
v 0.232500 0.026020 3.651500
v 0.256500 0.152020 1.901500
v 0.256500 0.152020 3.651500
v 0.256500 0.002020 1.901500
v 0.256500 0.002020 3.651500
v 0.106500 0.002020 1.901500
v 0.106500 0.002020 3.651500
v 0.106500 0.026020 1.901500
v 0.106500 0.026020 3.651500
v 10.780500 0.152020 3.651500
v 10.780500 0.026020 3.651500
v 10.756500 0.152020 3.651500
v 10.756500 0.002020 3.651500
v 10.906501 0.002020 3.651500
v 10.906501 0.026020 3.651500
v 0.232500 0.152020 5.401500
v 0.232500 0.026020 5.401500
v 0.256500 0.152020 5.401500
v 0.256500 0.002020 5.401500
v 0.106500 0.002020 5.401500
v 0.106500 0.026020 5.401500
v 0.232500 0.152020 0.151500
v 0.232500 0.026020 0.151500
v 0.256500 0.152020 0.151500
v 0.106500 0.002020 0.151500
v 0.106500 0.026020 0.151500
v 10.780500 0.152020 5.401500
v 10.780500 0.026020 5.401500
v 10.756500 0.152020 5.401500
v 10.906501 0.002020 5.401500
v 10.906501 0.026020 5.401500
v 1.906500 0.152020 0.127500
v 1.906500 0.026020 0.127500
v 0.106500 0.152020 0.127500
v 0.106500 0.026020 0.127500
v 1.906500 0.152020 0.151500
v 0.106500 0.152020 0.151500
v 1.906500 0.002020 0.151500
v 0.106500 0.002020 0.151500
v 1.906500 0.002020 0.001500
v 0.106500 0.002020 0.001500
v 1.906500 0.026020 0.001500
v 0.106500 0.026020 0.001500
v 3.706501 0.152020 0.127500
v 3.706501 0.026020 0.127500
v 3.706501 0.152020 0.151500
v 3.706501 0.002020 0.151500
v 3.706501 0.002020 0.001500
v 3.706501 0.026020 0.001500
v 10.906501 0.152020 0.127500
v 10.906501 0.026020 0.127500
v 9.106501 0.152020 0.127500
v 9.106501 0.026020 0.127500
v 10.906501 0.152020 0.151500
v 9.106501 0.152020 0.151500
v 9.106501 0.002020 0.151500
v 10.906501 0.002020 0.001500
v 9.106501 0.002020 0.001500
v 10.906501 0.026020 0.001500
v 9.106501 0.026020 0.001500
v 7.306500 0.152020 0.127500
v 7.306500 0.026020 0.127500
v 7.306500 0.152020 0.151500
v 7.306500 0.002020 0.151500
v 7.306500 0.002020 0.001500
v 7.306500 0.026020 0.001500
v 5.506500 0.152020 0.127500
v 5.506500 0.026020 0.127500
v 5.506500 0.152020 0.151500
v 5.506500 0.002020 0.151500
v 5.506500 0.002020 0.001500
v 5.506500 0.026020 0.001500
vn 1.0000 0.0000 0.0000
vn 0.0000 1.0000 0.0000
vn -1.0000 0.0000 0.0000
vn 0.0000 -1.0000 -0.0000
vn 0.0000 0.0000 1.0000
vn 0.0000 0.0000 -1.0000
usemtl None
s off
f 1//1 2//1 3//1
f 3//1 2//1 4//1
f 5//2 1//2 6//2
f 6//2 1//2 3//2
f 7//3 5//3 8//3
f 8//3 5//3 6//3
f 9//4 7//4 10//4
f 10//4 7//4 8//4
f 11//1 9//1 12//1
f 12//1 9//1 10//1
f 2//2 11//2 4//2
f 4//2 11//2 12//2
f 1//5 5//5 2//5
f 2//5 5//5 7//5
f 2//5 7//5 11//5
f 11//5 7//5 9//5
f 12//6 10//6 4//6
f 4//6 10//6 8//6
f 4//6 8//6 3//6
f 3//6 8//6 6//6
f 13//6 14//6 8//6
f 8//6 14//6 15//6
f 16//1 13//1 17//1
f 17//1 13//1 8//1
f 18//5 16//5 19//5
f 19//5 16//5 17//5
f 14//3 18//3 15//3
f 15//3 18//3 19//3
f 16//4 18//4 13//4
f 13//4 18//4 14//4
f 19//2 17//2 15//2
f 15//2 17//2 8//2
f 20//5 21//5 22//5
f 22//5 21//5 23//5
f 24//4 20//4 25//4
f 25//4 20//4 22//4
f 26//6 24//6 27//6
f 27//6 24//6 25//6
f 21//2 26//2 23//2
f 23//2 26//2 27//2
f 24//1 26//1 20//1
f 20//1 26//1 21//1
f 27//3 25//3 23//3
f 23//3 25//3 22//3
f 28//6 29//6 30//6
f 30//6 29//6 31//6
f 32//3 28//3 33//3
f 33//3 28//3 30//3
f 34//5 32//5 35//5
f 35//5 32//5 33//5
f 29//1 34//1 31//1
f 31//1 34//1 35//1
f 32//2 34//2 28//2
f 28//2 34//2 29//2
f 35//4 33//4 31//4
f 31//4 33//4 30//4
f 36//5 37//5 38//5
f 38//5 37//5 39//5
f 40//1 36//1 41//1
f 41//1 36//1 38//1
f 42//6 40//6 43//6
f 43//6 40//6 41//6
f 37//3 42//3 39//3
f 39//3 42//3 43//3
f 40//2 42//2 36//2
f 36//2 42//2 37//2
f 43//4 41//4 39//4
f 39//4 41//4 38//4
f 44//1 45//1 8//1
f 8//1 45//1 46//1
f 47//6 44//6 48//6
f 48//6 44//6 8//6
f 49//3 47//3 50//3
f 50//3 47//3 48//3
f 45//5 49//5 46//5
f 46//5 49//5 50//5
f 47//2 49//2 44//2
f 44//2 49//2 45//2
f 50//4 48//4 46//4
f 46//4 48//4 8//4
f 51//6 52//6 53//6
f 53//6 52//6 54//6
f 55//3 51//3 56//3
f 56//3 51//3 53//3
f 57//5 55//5 58//5
f 58//5 55//5 56//5
f 52//1 57//1 54//1
f 54//1 57//1 58//1
f 55//2 57//2 51//2
f 51//2 57//2 52//2
f 58//4 56//4 54//4
f 54//4 56//4 53//4
f 59//1 60//1 61//1
f 61//1 60//1 62//1
f 63//6 59//6 64//6
f 64//6 59//6 61//6
f 65//3 63//3 66//3
f 66//3 63//3 64//3
f 60//5 65//5 62//5
f 62//5 65//5 66//5
f 63//2 65//2 59//2
f 59//2 65//2 60//2
f 66//4 64//4 62//4
f 62//4 64//4 61//4
f 67//6 68//6 69//6
f 69//6 68//6 70//6
f 71//4 67//4 72//4
f 72//4 67//4 69//4
f 73//5 71//5 74//5
f 74//5 71//5 72//5
f 68//2 73//2 70//2
f 70//2 73//2 74//2
f 71//3 73//3 67//3
f 67//3 73//3 68//3
f 74//1 72//1 70//1
f 70//1 72//1 69//1
f 75//5 76//5 77//5
f 77//5 76//5 78//5
f 79//3 75//3 80//3
f 80//3 75//3 77//3
f 81//6 79//6 82//6
f 82//6 79//6 80//6
f 76//1 81//1 78//1
f 78//1 81//1 82//1
f 79//4 81//4 75//4
f 75//4 81//4 76//4
f 82//2 80//2 78//2
f 78//2 80//2 77//2
f 83//3 84//3 85//3
f 85//3 84//3 86//3
f 87//2 83//2 88//2
f 88//2 83//2 85//2
f 89//1 87//1 90//1
f 90//1 87//1 88//1
f 91//4 89//4 92//4
f 92//4 89//4 90//4
f 93//3 91//3 94//3
f 94//3 91//3 92//3
f 84//2 93//2 86//2
f 86//2 93//2 94//2
f 83//6 87//6 84//6
f 84//6 87//6 89//6
f 84//6 89//6 93//6
f 93//6 89//6 91//6
f 94//5 92//5 86//5
f 86//5 92//5 90//5
f 86//5 90//5 85//5
f 85//5 90//5 88//5
f 95//1 96//1 1//1
f 1//1 96//1 2//1
f 97//2 95//2 5//2
f 5//2 95//2 1//2
f 98//3 97//3 7//3
f 7//3 97//3 5//3
f 99//4 98//4 9//4
f 9//4 98//4 7//4
f 100//1 99//1 11//1
f 11//1 99//1 9//1
f 96//2 100//2 2//2
f 2//2 100//2 11//2
f 95//5 97//5 96//5
f 96//5 97//5 98//5
f 96//5 98//5 100//5
f 100//5 98//5 99//5
f 11//6 9//6 2//6
f 2//6 9//6 7//6
f 2//6 7//6 1//6
f 1//6 7//6 5//6
f 85//3 86//3 101//3
f 101//3 86//3 102//3
f 88//2 85//2 103//2
f 103//2 85//2 101//2
f 90//1 88//1 104//1
f 104//1 88//1 103//1
f 92//4 90//4 105//4
f 105//4 90//4 104//4
f 94//3 92//3 106//3
f 106//3 92//3 105//3
f 86//2 94//2 102//2
f 102//2 94//2 106//2
f 85//6 88//6 86//6
f 86//6 88//6 90//6
f 86//6 90//6 94//6
f 94//6 90//6 92//6
f 106//5 105//5 102//5
f 102//5 105//5 104//5
f 102//5 104//5 101//5
f 101//5 104//5 103//5
f 107//3 108//3 83//3
f 83//3 108//3 84//3
f 109//2 107//2 87//2
f 87//2 107//2 83//2
f 30//1 109//1 89//1
f 89//1 109//1 87//1
f 110//4 30//4 91//4
f 91//4 30//4 89//4
f 111//3 110//3 93//3
f 93//3 110//3 91//3
f 108//2 111//2 84//2
f 84//2 111//2 93//2
f 107//6 109//6 108//6
f 108//6 109//6 30//6
f 108//6 30//6 111//6
f 111//6 30//6 110//6
f 93//5 91//5 84//5
f 84//5 91//5 89//5
f 84//5 89//5 83//5
f 83//5 89//5 87//5
f 112//1 113//1 95//1
f 95//1 113//1 96//1
f 114//2 112//2 97//2
f 97//2 112//2 95//2
f 17//3 114//3 98//3
f 98//3 114//3 97//3
f 115//4 17//4 99//4
f 99//4 17//4 98//4
f 116//1 115//1 100//1
f 100//1 115//1 99//1
f 113//2 116//2 96//2
f 96//2 116//2 100//2
f 112//5 114//5 113//5
f 113//5 114//5 17//5
f 113//5 17//5 116//5
f 116//5 17//5 115//5
f 100//6 99//6 96//6
f 96//6 99//6 98//6
f 96//6 98//6 95//6
f 95//6 98//6 97//6
f 117//6 118//6 119//6
f 119//6 118//6 120//6
f 121//2 117//2 122//2
f 122//2 117//2 119//2
f 123//5 121//5 124//5
f 124//5 121//5 122//5
f 125//4 123//4 126//4
f 126//4 123//4 124//4
f 127//6 125//6 128//6
f 128//6 125//6 126//6
f 118//2 127//2 120//2
f 120//2 127//2 128//2
f 117//1 121//1 118//1
f 118//1 121//1 123//1
f 118//1 123//1 127//1
f 127//1 123//1 125//1
f 128//3 126//3 120//3
f 120//3 126//3 124//3
f 120//3 124//3 119//3
f 119//3 124//3 122//3
f 129//6 130//6 117//6
f 117//6 130//6 118//6
f 131//2 129//2 121//2
f 121//2 129//2 117//2
f 132//5 131//5 123//5
f 123//5 131//5 121//5
f 133//4 132//4 125//4
f 125//4 132//4 123//4
f 134//6 133//6 127//6
f 127//6 133//6 125//6
f 130//2 134//2 118//2
f 118//2 134//2 127//2
f 129//1 131//1 130//1
f 130//1 131//1 132//1
f 130//1 132//1 134//1
f 134//1 132//1 133//1
f 127//3 125//3 118//3
f 118//3 125//3 123//3
f 118//3 123//3 117//3
f 117//3 123//3 121//3
f 135//6 136//6 137//6
f 137//6 136//6 138//6
f 139//2 135//2 140//2
f 140//2 135//2 137//2
f 10//5 139//5 141//5
f 141//5 139//5 140//5
f 142//4 10//4 143//4
f 143//4 10//4 141//4
f 144//6 142//6 145//6
f 145//6 142//6 143//6
f 136//2 144//2 138//2
f 138//2 144//2 145//2
f 135//1 139//1 136//1
f 136//1 139//1 10//1
f 136//1 10//1 144//1
f 144//1 10//1 142//1
f 145//3 143//3 138//3
f 138//3 143//3 141//3
f 138//3 141//3 137//3
f 137//3 141//3 140//3
f 137//6 138//6 146//6
f 146//6 138//6 147//6
f 140//2 137//2 148//2
f 148//2 137//2 146//2
f 141//5 140//5 149//5
f 149//5 140//5 148//5
f 143//4 141//4 150//4
f 150//4 141//4 149//4
f 145//6 143//6 151//6
f 151//6 143//6 150//6
f 138//2 145//2 147//2
f 147//2 145//2 151//2
f 137//1 140//1 138//1
f 138//1 140//1 141//1
f 138//1 141//1 145//1
f 145//1 141//1 143//1
f 151//3 150//3 147//3
f 147//3 150//3 149//3
f 147//3 149//3 146//3
f 146//3 149//3 148//3
f 152//6 153//6 129//6
f 129//6 153//6 130//6
f 154//2 152//2 131//2
f 131//2 152//2 129//2
f 155//5 154//5 132//5
f 132//5 154//5 131//5
f 156//4 155//4 133//4
f 133//4 155//4 132//4
f 157//6 156//6 134//6
f 134//6 156//6 133//6
f 153//2 157//2 130//2
f 130//2 157//2 134//2
f 152//1 154//1 153//1
f 153//1 154//1 155//1
f 153//1 155//1 157//1
f 157//1 155//1 156//1
f 134//3 133//3 130//3
f 130//3 133//3 132//3
f 130//3 132//3 129//3
f 129//3 132//3 131//3
f 146//6 147//6 152//6
f 152//6 147//6 153//6
f 148//2 146//2 154//2
f 154//2 146//2 152//2
f 149//5 148//5 155//5
f 155//5 148//5 154//5
f 150//4 149//4 156//4
f 156//4 149//4 155//4
f 151//6 150//6 157//6
f 157//6 150//6 156//6
f 147//2 151//2 153//2
f 153//2 151//2 157//2
f 146//1 148//1 147//1
f 147//1 148//1 149//1
f 147//1 149//1 151//1
f 151//1 149//1 150//1
f 157//3 156//3 153//3
f 153//3 156//3 155//3
f 153//3 155//3 152//3
f 152//3 155//3 154//3
