# Blender 3.5.0
# www.blender.org
mtllib field.mtl
o nhk2025field_b2
v 10.756500 0.000020 0.151500
v 5.756500 0.000020 0.151500
v 10.756500 0.002020 0.151500
v 5.756500 0.002020 0.151500
v 10.756500 0.000020 5.401500
v 10.756500 0.002020 5.401500
v 5.756500 0.000020 5.401500
v 5.756500 0.002020 5.401500
v 5.757500 0.000020 0.152500
v 10.755501 0.000020 0.152500
v 10.755501 0.000020 5.400500
v 5.757500 0.000020 5.400500
v 10.755501 0.002020 5.400500
v 10.755501 0.002020 0.152500
v 5.757500 0.002020 0.152500
v 5.757500 0.002020 5.400500
v 0.256500 0.004020 5.401500
v 0.256500 0.004020 4.801500
v 0.256500 0.002020 5.401500
v 0.256500 0.002020 4.801500
v 3.956501 0.002020 4.801500
v 3.956501 0.004020 4.801500
v 3.956501 0.002020 5.401500
v 3.956501 0.004020 5.401500
v 0.257500 0.002020 5.401500
v 0.257500 0.002020 4.802500
v 3.955500 0.002020 4.802500
v 3.955500 0.002020 5.401500
v 3.955500 0.004020 5.401500
v 3.955500 0.004020 4.802500
v 0.257500 0.004020 4.802500
v 0.257500 0.004020 5.401500
v 3.956501 0.004020 5.626500
v 3.956501 0.148020 5.626500
v 0.256500 0.004020 5.626500
v 0.256500 0.148020 5.626500
v 3.956501 0.004020 5.176500
v 0.256500 0.004020 5.176500
v 3.956501 0.148020 5.176500
v 0.256500 0.148020 5.176500
v 0.256500 0.004020 0.151500
v 2.256500 0.004020 0.151500
v 0.256500 0.002020 0.151500
v 2.256500 0.002020 0.151500
v 0.256500 0.004020 2.651500
v 0.256500 0.002020 2.651500
v 2.256500 0.004020 2.651500
v 2.256500 0.002020 2.651500
v 2.255500 0.004020 0.152500
v 0.257500 0.004020 0.152500
v 0.257500 0.004020 2.650500
v 2.255500 0.004020 2.650500
v 0.257500 0.002020 2.650500
v 0.257500 0.002020 0.152500
v 2.255500 0.002020 0.152500
v 2.255500 0.002020 2.650500
v 10.780500 0.152020 1.901500
v 10.780500 0.026020 1.901500
v 10.780500 0.152020 0.151500
v 10.780500 0.026020 0.151500
v 10.756500 0.152020 1.901500
v 10.756500 0.152020 0.151500
v 10.756500 0.002020 1.901500
v 10.906501 0.002020 1.901500
v 10.906501 0.002020 0.151500
v 10.906501 0.026020 1.901500
v 10.906501 0.026020 0.151500
v 0.232500 0.152020 3.651500
v 0.232500 0.026020 3.651500
v 0.232500 0.152020 5.401500
v 0.232500 0.026020 5.401500
v 0.256500 0.152020 3.651500
v 0.256500 0.152020 5.401500
v 0.256500 0.002020 3.651500
v 0.106500 0.002020 3.651500
v 0.106500 0.002020 5.401500
v 0.106500 0.026020 3.651500
v 0.106500 0.026020 5.401500
v 0.232500 0.152020 0.151500
v 0.232500 0.026020 0.151500
v 0.232500 0.152020 1.901500
v 0.232500 0.026020 1.901500
v 0.256500 0.152020 0.151500
v 0.256500 0.152020 1.901500
v 0.256500 0.002020 1.901500
v 0.106500 0.002020 0.151500
v 0.106500 0.002020 1.901500
v 0.106500 0.026020 0.151500
v 0.106500 0.026020 1.901500
v 7.756500 0.004020 0.151500
v 7.756500 0.004020 1.151500
v 7.756500 0.002020 0.151500
v 7.756500 0.002020 1.151500
v 6.756500 0.004020 0.151500
v 6.756500 0.002020 0.151500
v 6.756500 0.004020 1.151500
v 6.756500 0.002020 1.151500
v 7.755500 0.004020 1.150500
v 7.755500 0.004020 0.152500
v 6.757500 0.004020 0.152500
v 6.757500 0.004020 1.150500
v 6.757500 0.002020 0.152500
v 7.755500 0.002020 0.152500
v 7.755500 0.002020 1.150500
v 6.757500 0.002020 1.150500
v 10.756500 0.004020 0.151500
v 10.756500 0.004020 1.151500
v 10.756500 0.002020 1.151500
v 9.756500 0.004020 0.151500
v 9.756500 0.002020 0.151500
v 9.756500 0.004020 1.151500
v 9.756500 0.002020 1.151500
v 10.755501 0.004020 1.150500
v 10.755501 0.004020 0.152500
v 9.757501 0.004020 0.152500
v 9.757501 0.004020 1.150500
v 9.757501 0.002020 0.152500
v 10.755501 0.002020 1.150500
v 9.757501 0.002020 1.150500
v 10.780500 0.152020 5.401500
v 10.780500 0.026020 5.401500
v 10.780500 0.152020 3.651500
v 10.780500 0.026020 3.651500
v 10.756500 0.152020 5.401500
v 10.756500 0.152020 3.651500
v 10.756500 0.002020 3.651500
v 10.906501 0.002020 5.401500
v 10.906501 0.002020 3.651500
v 10.906501 0.026020 5.401500
v 10.906501 0.026020 3.651500
v 6.756501 0.004020 1.151500
v 7.756501 0.004020 1.151500
v 6.756501 0.002020 1.151500
v 7.756501 0.002020 1.151500
v 6.756501 0.004020 5.379000
v 6.756501 0.002020 5.379000
v 7.756501 0.004020 5.379000
v 7.756501 0.002020 5.379000
v 7.755501 0.004020 1.152500
v 6.757501 0.004020 1.152500
v 6.757501 0.004020 5.378000
v 7.755501 0.004020 5.378000
v 6.757501 0.002020 5.378000
v 6.757501 0.002020 1.152500
v 7.755501 0.002020 1.152500
v 7.755501 0.002020 5.378000
v 3.956500 0.002020 5.379000
v 3.956500 0.047020 5.379000
v 10.756500 0.002020 5.379000
v 10.756500 0.047020 5.379000
v 3.956500 0.002020 5.424000
v 10.756500 0.002020 5.424000
v 3.956500 0.047020 5.424000
v 10.756500 0.047020 5.424000
v 5.506500 0.152020 0.127500
v 5.506500 0.026020 0.127500
v 3.706501 0.152020 0.127500
v 3.706501 0.026020 0.127500
v 5.506500 0.152020 0.151500
v 3.706501 0.152020 0.151500
v 5.506500 0.002020 0.151500
v 3.706501 0.002020 0.151500
v 5.506500 0.002020 0.001500
v 3.706501 0.002020 0.001500
v 5.506500 0.026020 0.001500
v 3.706501 0.026020 0.001500
v 9.106501 0.152020 0.127500
v 9.106501 0.026020 0.127500
v 7.306500 0.152020 0.127500
v 7.306500 0.026020 0.127500
v 9.106501 0.152020 0.151500
v 7.306500 0.152020 0.151500
v 9.106501 0.002020 0.151500
v 7.306500 0.002020 0.151500
v 9.106501 0.002020 0.001500
v 7.306500 0.002020 0.001500
v 9.106501 0.026020 0.001500
v 7.306500 0.026020 0.001500
v 1.906500 0.152020 0.127500
v 1.906500 0.026020 0.127500
v 0.106500 0.152020 0.127500
v 0.106500 0.026020 0.127500
v 1.906500 0.152020 0.151500
v 0.106500 0.152020 0.151500
v 1.906500 0.002020 0.151500
v 0.106500 0.002020 0.151500
v 1.906500 0.002020 0.001500
v 0.106500 0.002020 0.001500
v 1.906500 0.026020 0.001500
v 0.106500 0.026020 0.001500
v 10.906501 0.152020 0.127500
v 10.906501 0.026020 0.127500
v 10.906501 0.152020 0.151500
v 10.906501 0.002020 0.001500
v 10.906501 0.026020 0.001500
vn -0.0000 -0.0000 -1.0000
vn 1.0000 -0.0000 -0.0000
vn -0.0000 -0.0000 1.0000
vn -1.0000 -0.0000 -0.0000
vn -0.0000 -1.0000 -0.0000
vn -0.0000 1.0000 -0.0000
vn 1.0000 -0.0001 -0.0000
vn -1.0000 0.0001 -0.0000
s 0
f 1//1 2//1 3//1
f 3//1 2//1 4//1
f 5//2 1//2 6//2
f 6//2 1//2 3//2
f 7//3 5//3 8//3
f 8//3 5//3 6//3
f 2//4 7//4 4//4
f 4//4 7//4 8//4
f 9//5 2//5 10//5
f 10//5 2//5 1//5
f 10//5 1//5 11//5
f 11//5 1//5 5//5
f 11//5 5//5 12//5
f 12//5 5//5 7//5
f 12//5 7//5 9//5
f 9//5 7//5 2//5
f 13//6 6//6 14//6
f 14//6 6//6 3//6
f 14//6 3//6 15//6
f 15//6 3//6 4//6
f 15//6 4//6 16//6
f 16//6 4//6 8//6
f 16//6 8//6 13//6
f 13//6 8//6 6//6
f 13//1 11//1 16//1
f 16//1 11//1 12//1
f 16//2 12//2 15//2
f 15//2 12//2 9//2
f 15//3 9//3 14//3
f 14//3 9//3 10//3
f 14//4 10//4 13//4
f 13//4 10//4 11//4
f 17//4 18//4 19//4
f 19//4 18//4 20//4
f 21//1 20//1 22//1
f 22//1 20//1 18//1
f 23//2 21//2 24//2
f 24//2 21//2 22//2
f 25//5 19//5 26//5
f 26//5 19//5 20//5
f 26//5 20//5 27//5
f 27//5 20//5 21//5
f 27//5 21//5 28//5
f 28//5 21//5 23//5
f 29//6 24//6 30//6
f 30//6 24//6 22//6
f 30//6 22//6 31//6
f 31//6 22//6 18//6
f 31//6 18//6 32//6
f 32//6 18//6 17//6
f 25//2 26//2 32//2
f 32//2 26//2 31//2
f 31//3 26//3 30//3
f 30//3 26//3 27//3
f 29//4 30//4 28//4
f 28//4 30//4 27//4
f 29//3 28//3 24//3
f 24//3 28//3 23//3
f 17//3 19//3 32//3
f 32//3 19//3 25//3
f 33//3 34//3 35//3
f 35//3 34//3 36//3
f 37//5 33//5 38//5
f 38//5 33//5 35//5
f 39//1 37//1 40//1
f 40//1 37//1 38//1
f 34//6 39//6 36//6
f 36//6 39//6 40//6
f 37//2 39//2 33//2
f 33//2 39//2 34//2
f 40//4 38//4 36//4
f 36//4 38//4 35//4
f 41//1 42//1 43//1
f 43//1 42//1 44//1
f 45//4 41//4 46//4
f 46//4 41//4 43//4
f 47//3 45//3 48//3
f 48//3 45//3 46//3
f 42//2 47//2 44//2
f 44//2 47//2 48//2
f 49//6 42//6 50//6
f 50//6 42//6 41//6
f 50//6 41//6 51//6
f 51//6 41//6 45//6
f 51//6 45//6 52//6
f 52//6 45//6 47//6
f 52//6 47//6 49//6
f 49//6 47//6 42//6
f 53//5 46//5 54//5
f 54//5 46//5 43//5
f 54//5 43//5 55//5
f 55//5 43//5 44//5
f 55//5 44//5 56//5
f 56//5 44//5 48//5
f 56//5 48//5 53//5
f 53//5 48//5 46//5
f 51//1 52//1 53//1
f 53//1 52//1 56//1
f 50//2 51//2 54//2
f 54//2 51//2 53//2
f 49//3 50//3 55//3
f 55//3 50//3 54//3
f 52//4 49//4 56//4
f 56//4 49//4 55//4
f 57//2 58//2 59//2
f 59//2 58//2 60//2
f 61//6 57//6 62//6
f 62//6 57//6 59//6
f 63//4 61//4 3//4
f 3//4 61//4 62//4
f 64//5 63//5 65//5
f 65//5 63//5 3//5
f 66//2 64//2 67//2
f 67//2 64//2 65//2
f 58//6 66//6 60//6
f 60//6 66//6 67//6
f 57//3 61//3 58//3
f 58//3 61//3 63//3
f 58//3 63//3 66//3
f 66//3 63//3 64//3
f 67//1 65//1 60//1
f 60//1 65//1 3//1
f 60//1 3//1 59//1
f 59//1 3//1 62//1
f 68//4 69//4 70//4
f 70//4 69//4 71//4
f 72//6 68//6 73//6
f 73//6 68//6 70//6
f 74//2 72//2 19//2
f 19//2 72//2 73//2
f 75//5 74//5 76//5
f 76//5 74//5 19//5
f 77//4 75//4 78//4
f 78//4 75//4 76//4
f 69//6 77//6 71//6
f 71//6 77//6 78//6
f 68//1 72//1 69//1
f 69//1 72//1 74//1
f 69//1 74//1 77//1
f 77//1 74//1 75//1
f 78//3 76//3 71//3
f 71//3 76//3 19//3
f 71//3 19//3 70//3
f 70//3 19//3 73//3
f 79//4 80//4 81//4
f 81//4 80//4 82//4
f 83//6 79//6 84//6
f 84//6 79//6 81//6
f 43//2 83//2 85//2
f 85//2 83//2 84//2
f 86//5 43//5 87//5
f 87//5 43//5 85//5
f 88//4 86//4 89//4
f 89//4 86//4 87//4
f 80//6 88//6 82//6
f 82//6 88//6 89//6
f 79//1 83//1 80//1
f 80//1 83//1 43//1
f 80//1 43//1 88//1
f 88//1 43//1 86//1
f 89//3 87//3 82//3
f 82//3 87//3 85//3
f 82//3 85//3 81//3
f 81//3 85//3 84//3
f 90//2 91//2 92//2
f 92//2 91//2 93//2
f 94//1 90//1 95//1
f 95//1 90//1 92//1
f 96//4 94//4 97//4
f 97//4 94//4 95//4
f 91//3 96//3 93//3
f 93//3 96//3 97//3
f 98//6 91//6 99//6
f 99//6 91//6 90//6
f 99//6 90//6 100//6
f 100//6 90//6 94//6
f 100//6 94//6 101//6
f 101//6 94//6 96//6
f 101//6 96//6 98//6
f 98//6 96//6 91//6
f 102//5 95//5 103//5
f 103//5 95//5 92//5
f 103//5 92//5 104//5
f 104//5 92//5 93//5
f 104//5 93//5 105//5
f 105//5 93//5 97//5
f 105//5 97//5 102//5
f 102//5 97//5 95//5
f 100//2 101//2 102//2
f 102//2 101//2 105//2
f 99//3 100//3 103//3
f 103//3 100//3 102//3
f 98//4 99//4 104//4
f 104//4 99//4 103//4
f 101//1 98//1 105//1
f 105//1 98//1 104//1
f 106//2 107//2 3//2
f 3//2 107//2 108//2
f 109//1 106//1 110//1
f 110//1 106//1 3//1
f 111//4 109//4 112//4
f 112//4 109//4 110//4
f 107//3 111//3 108//3
f 108//3 111//3 112//3
f 113//6 107//6 114//6
f 114//6 107//6 106//6
f 114//6 106//6 115//6
f 115//6 106//6 109//6
f 115//6 109//6 116//6
f 116//6 109//6 111//6
f 116//6 111//6 113//6
f 113//6 111//6 107//6
f 117//5 110//5 14//5
f 14//5 110//5 3//5
f 14//5 3//5 118//5
f 118//5 3//5 108//5
f 118//5 108//5 119//5
f 119//5 108//5 112//5
f 119//5 112//5 117//5
f 117//5 112//5 110//5
f 115//2 116//2 117//2
f 117//2 116//2 119//2
f 114//3 115//3 14//3
f 14//3 115//3 117//3
f 113//4 114//4 118//4
f 118//4 114//4 14//4
f 116//1 113//1 119//1
f 119//1 113//1 118//1
f 81//4 82//4 68//4
f 68//4 82//4 69//4
f 84//6 81//6 72//6
f 72//6 81//6 68//6
f 85//2 84//2 74//2
f 74//2 84//2 72//2
f 87//5 85//5 75//5
f 75//5 85//5 74//5
f 89//4 87//4 77//4
f 77//4 87//4 75//4
f 82//6 89//6 69//6
f 69//6 89//6 77//6
f 81//1 84//1 82//1
f 82//1 84//1 85//1
f 82//1 85//1 89//1
f 89//1 85//1 87//1
f 77//3 75//3 69//3
f 69//3 75//3 74//3
f 69//3 74//3 68//3
f 68//3 74//3 72//3
f 120//2 121//2 122//2
f 122//2 121//2 123//2
f 124//6 120//6 125//6
f 125//6 120//6 122//6
f 6//4 124//4 126//4
f 126//4 124//4 125//4
f 127//5 6//5 128//5
f 128//5 6//5 126//5
f 129//2 127//2 130//2
f 130//2 127//2 128//2
f 121//6 129//6 123//6
f 123//6 129//6 130//6
f 120//3 124//3 121//3
f 121//3 124//3 6//3
f 121//3 6//3 129//3
f 129//3 6//3 127//3
f 130//1 128//1 123//1
f 123//1 128//1 126//1
f 123//1 126//1 122//1
f 122//1 126//1 125//1
f 122//2 123//2 57//2
f 57//2 123//2 58//2
f 125//6 122//6 61//6
f 61//6 122//6 57//6
f 126//4 125//4 63//4
f 63//4 125//4 61//4
f 128//5 126//5 64//5
f 64//5 126//5 63//5
f 130//2 128//2 66//2
f 66//2 128//2 64//2
f 123//6 130//6 58//6
f 58//6 130//6 66//6
f 122//3 125//3 123//3
f 123//3 125//3 126//3
f 123//3 126//3 130//3
f 130//3 126//3 128//3
f 66//1 64//1 58//1
f 58//1 64//1 63//1
f 58//1 63//1 57//1
f 57//1 63//1 61//1
f 131//1 132//1 133//1
f 133//1 132//1 134//1
f 135//4 131//4 136//4
f 136//4 131//4 133//4
f 137//3 135//3 138//3
f 138//3 135//3 136//3
f 132//2 137//2 134//2
f 134//2 137//2 138//2
f 139//6 132//6 140//6
f 140//6 132//6 131//6
f 140//6 131//6 141//6
f 141//6 131//6 135//6
f 141//6 135//6 142//6
f 142//6 135//6 137//6
f 142//6 137//6 139//6
f 139//6 137//6 132//6
f 143//5 136//5 144//5
f 144//5 136//5 133//5
f 144//5 133//5 145//5
f 145//5 133//5 134//5
f 145//5 134//5 146//5
f 146//5 134//5 138//5
f 146//5 138//5 143//5
f 143//5 138//5 136//5
f 141//1 142//1 143//1
f 143//1 142//1 146//1
f 140//2 141//2 144//2
f 144//2 141//2 143//2
f 139//3 140//3 145//3
f 145//3 140//3 144//3
f 142//4 139//4 146//4
f 146//4 139//4 145//4
f 147//1 148//1 149//1
f 149//1 148//1 150//1
f 151//5 147//5 152//5
f 152//5 147//5 149//5
f 153//3 151//3 154//3
f 154//3 151//3 152//3
f 148//6 153//6 150//6
f 150//6 153//6 154//6
f 151//4 153//4 147//4
f 147//4 153//4 148//4
f 154//2 152//2 150//2
f 150//2 152//2 149//2
f 155//1 156//1 157//1
f 157//1 156//1 158//1
f 159//6 155//6 160//6
f 160//6 155//6 157//6
f 161//3 159//3 162//3
f 162//3 159//3 160//3
f 163//5 161//5 164//5
f 164//5 161//5 162//5
f 165//1 163//1 166//1
f 166//1 163//1 164//1
f 156//6 165//6 158//6
f 158//6 165//6 166//6
f 155//2 159//2 156//2
f 156//2 159//2 161//2
f 156//2 161//2 165//2
f 165//2 161//2 163//2
f 166//4 164//4 158//4
f 158//4 164//4 162//4
f 158//4 162//4 157//4
f 157//4 162//4 160//4
f 167//1 168//1 169//1
f 169//1 168//1 170//1
f 171//6 167//6 172//6
f 172//6 167//6 169//6
f 173//3 171//3 174//3
f 174//3 171//3 172//3
f 175//5 173//5 176//5
f 176//5 173//5 174//5
f 177//1 175//1 178//1
f 178//1 175//1 176//1
f 168//6 177//6 170//6
f 170//6 177//6 178//6
f 167//2 171//2 168//2
f 168//2 171//2 173//2
f 168//7 173//7 177//7
f 177//2 173//2 175//2
f 178//4 176//4 170//4
f 170//4 176//4 174//4
f 170//4 174//4 169//4
f 169//4 174//4 172//4
f 169//1 170//1 155//1
f 155//1 170//1 156//1
f 172//6 169//6 159//6
f 159//6 169//6 155//6
f 174//3 172//3 161//3
f 161//3 172//3 159//3
f 176//5 174//5 163//5
f 163//5 174//5 161//5
f 178//1 176//1 165//1
f 165//1 176//1 163//1
f 170//6 178//6 156//6
f 156//6 178//6 165//6
f 169//2 172//2 170//2
f 170//2 172//2 174//2
f 170//2 174//2 178//2
f 178//2 174//2 176//2
f 165//4 163//4 156//4
f 156//4 163//4 161//4
f 156//4 161//4 155//4
f 155//4 161//4 159//4
f 179//1 180//1 181//1
f 181//1 180//1 182//1
f 183//6 179//6 184//6
f 184//6 179//6 181//6
f 185//3 183//3 186//3
f 186//3 183//3 184//3
f 187//5 185//5 188//5
f 188//5 185//5 186//5
f 189//1 187//1 190//1
f 190//1 187//1 188//1
f 180//6 189//6 182//6
f 182//6 189//6 190//6
f 179//2 183//2 180//2
f 180//2 183//2 185//2
f 180//2 185//2 189//2
f 189//2 185//2 187//2
f 190//4 188//4 182//4
f 182//4 188//4 186//4
f 182//4 186//4 181//4
f 181//4 186//4 184//4
f 157//1 158//1 179//1
f 179//1 158//1 180//1
f 160//6 157//6 183//6
f 183//6 157//6 179//6
f 162//3 160//3 185//3
f 185//3 160//3 183//3
f 164//5 162//5 187//5
f 187//5 162//5 185//5
f 166//1 164//1 189//1
f 189//1 164//1 187//1
f 158//6 166//6 180//6
f 180//6 166//6 189//6
f 157//2 160//2 158//2
f 158//2 160//2 162//2
f 158//2 162//2 166//2
f 166//2 162//2 164//2
f 189//4 187//4 180//4
f 180//4 187//4 185//4
f 180//4 185//4 179//4
f 179//4 185//4 183//4
f 191//1 192//1 167//1
f 167//1 192//1 168//1
f 193//6 191//6 171//6
f 171//6 191//6 167//6
f 65//3 193//3 173//3
f 173//3 193//3 171//3
f 194//5 65//5 175//5
f 175//5 65//5 173//5
f 195//1 194//1 177//1
f 177//1 194//1 175//1
f 192//6 195//6 168//6
f 168//6 195//6 177//6
f 191//2 193//2 192//2
f 192//2 193//2 65//2
f 192//7 65//7 195//7
f 195//2 65//2 194//2
f 177//4 175//4 168//4
f 168//8 175//8 173//8
f 168//4 173//4 167//4
f 167//4 173//4 171//4
